<svg viewBox="0 0 64 64" fill="none" xmlns="http://www.w3.org/2000/svg">
  <defs>
    <linearGradient id="po" x1="0%" y1="0%" x2="100%" y2="100%">
      <stop offset="0%" stop-color="#f0d878"/>
      <stop offset="50%" stop-color="#d4a84b"/>
      <stop offset="100%" stop-color="#b8860b"/>
    </linearGradient>
    <linearGradient id="pi" x1="0%" y1="0%" x2="100%" y2="100%">
      <stop offset="0%" stop-color="#f0d878"/>
      <stop offset="100%" stop-color="#d4a84b"/>
    </linearGradient>
  </defs>
  <g transform="translate(32,32) scale(1.35) translate(-32,-32)">
  <g transform="translate(32,32)">
    <ellipse cx="0" cy="0" rx="4.5" ry="20" fill="url(#po)" transform="rotate(0)"/>
    <ellipse cx="0" cy="0" rx="4.5" ry="20" fill="url(#po)" transform="rotate(30)"/>
    <ellipse cx="0" cy="0" rx="4.5" ry="20" fill="url(#po)" transform="rotate(60)"/>
    <ellipse cx="0" cy="0" rx="4.5" ry="20" fill="url(#po)" transform="rotate(90)"/>
    <ellipse cx="0" cy="0" rx="4.5" ry="20" fill="url(#po)" transform="rotate(120)"/>
    <ellipse cx="0" cy="0" rx="4.5" ry="20" fill="url(#po)" transform="rotate(150)"/>
    <ellipse cx="0" cy="0" rx="4.5" ry="20" fill="url(#po)" transform="rotate(180)"/>
    <ellipse cx="0" cy="0" rx="4.5" ry="20" fill="url(#po)" transform="rotate(210)"/>
    <ellipse cx="0" cy="0" rx="4.5" ry="20" fill="url(#po)" transform="rotate(240)"/>
    <ellipse cx="0" cy="0" rx="4.5" ry="20" fill="url(#po)" transform="rotate(270)"/>
    <ellipse cx="0" cy="0" rx="4.5" ry="20" fill="url(#po)" transform="rotate(300)"/>
    <ellipse cx="0" cy="0" rx="4.5" ry="20" fill="url(#po)" transform="rotate(330)"/>
  </g>
  <g transform="translate(32,32)">
    <ellipse cx="0" cy="0" rx="3.5" ry="12" fill="url(#pi)" transform="rotate(6)"/>
    <ellipse cx="0" cy="0" rx="3.5" ry="12" fill="url(#pi)" transform="rotate(51)"/>
    <ellipse cx="0" cy="0" rx="3.5" ry="12" fill="url(#pi)" transform="rotate(96)"/>
    <ellipse cx="0" cy="0" rx="3.5" ry="12" fill="url(#pi)" transform="rotate(141)"/>
    <ellipse cx="0" cy="0" rx="3.5" ry="12" fill="url(#pi)" transform="rotate(186)"/>
    <ellipse cx="0" cy="0" rx="3.5" ry="12" fill="url(#pi)" transform="rotate(231)"/>
    <ellipse cx="0" cy="0" rx="3.5" ry="12" fill="url(#pi)" transform="rotate(276)"/>
    <ellipse cx="0" cy="0" rx="3.5" ry="12" fill="url(#pi)" transform="rotate(321)"/>
  </g>
  <g transform="translate(32,32)">
    <rect x="-7" y="-7" width="14" height="14" fill="#5c4033"/>
    <rect x="-5" y="-5" width="10" height="10" fill="#fff"/>
    <rect x="-3" y="-3" width="6" height="6" fill="#5c4033"/>
  </g>
  </g>
</svg>
